<svg xmlns:rdf="http://www.w3.org/1999/02/22-rdf-syntax-ns#" xmlns="http://www.w3.org/2000/svg" height="32" width="32" version="1.1" xmlns:cc="http://creativecommons.org/ns#" xmlns:xlink="http://www.w3.org/1999/xlink" xmlns:dc="http://purl.org/dc/elements/1.1/">
 <defs>
  <clipPath id="d">
   <rect rx="6" ry="6" height="84" width="84" y="6" x="6" fill="#fff"/>
  </clipPath>
  <linearGradient id="a" x1="48" gradientUnits="userSpaceOnUse" y1="20.221" x2="48" y2="138.66">
   <stop stop-color="#fff" offset="0"/>
   <stop stop-color="#fff" stop-opacity="0" offset="1"/>
  </linearGradient>
  <filter id="b" height="1.384" width="1.384" color-interpolation-filters="sRGB" y="-.192" x="-.192">
   <feGaussianBlur stdDeviation="5.28"/>
  </filter>
  <filter id="c" color-interpolation-filters="sRGB">
   <feGaussianBlur stdDeviation="1.71"/>
  </filter>
  <linearGradient id="e" x1="45.448" gradientUnits="userSpaceOnUse" y1="92.54" gradientTransform="scale(1.0059 .99417)" x2="45.448" y2="7.0165">
   <stop offset="0"/>
   <stop stop-opacity=".58824" offset="1"/>
  </linearGradient>
 </defs>
 <g transform="translate(-195 -132.36)">
  <g display="none" transform="matrix(.39062 0 0 .39062 441.75 356.68)">
   <rect opacity=".9" rx="15.36" ry="15.36" height="85" filter="url(#c)" width="86" y="7" x="5" fill="url(#e)"/>
  </g>
  <g display="none" transform="matrix(.39062 0 0 .39062 441.75 356.68)">
   <rect height="66" stroke="#fff" stroke-linecap="round" stroke-width="1.28" fill="url(#a)" rx="30.72" ry="30.72" width="66" opacity=".5" clip-path="url(#d)" filter="url(#b)" y="15" x="15"/>
  </g>
  <g transform="translate(-280,-180)">
   <rect opacity=".5" ry="0" rx="0" transform="scale(-1,1)" height="32" width="32" y="312.36" x="-507"/>
   <path fill="#fff" d="m505 319.36v1h-3v-1h3zm-5 0v1h-3v-1h3zm-5 0v1h-3v-1h3zm-5 0v1h-3v-1h3zm-5 0v1h-3v-1h3zm-5 0v1h-3v-1h3z"/>
   <path opacity=".36514" d="m531 330.36c2-5 3.0982-10.104 14-10v22h-28c5.5794-0.46297 10.807-2.7845 14-12z" transform="translate(-40)" fill="#fff"/>
   <path d="m545 320.38c-10.902-0.10366-12 5-14 10-3.1931 9.2155-8.4206 11.537-14 12h6.3125c3.5192-1.4761 6.6435-4.5212 8.8125-10.781 1.9274-4.8185 3.0412-9.7111 12.875-9.9688v-1.25z" transform="translate(-40)" fill="#fff"/>
  </g>
 </g>
</svg>
