<svg xmlns:rdf="http://www.w3.org/1999/02/22-rdf-syntax-ns#" xmlns="http://www.w3.org/2000/svg" height="32" width="32" version="1.1" xmlns:cc="http://creativecommons.org/ns#" xmlns:xlink="http://www.w3.org/1999/xlink" xmlns:dc="http://purl.org/dc/elements/1.1/">
 <defs>
  <clipPath id="d">
   <rect rx="6" ry="6" height="84" width="84" y="6" x="6" fill="#fff"/>
  </clipPath>
  <linearGradient id="a" x1="48" gradientUnits="userSpaceOnUse" y1="20.221" x2="48" y2="138.66">
   <stop stop-color="#fff" offset="0"/>
   <stop stop-color="#fff" stop-opacity="0" offset="1"/>
  </linearGradient>
  <filter id="b" height="1.384" width="1.384" color-interpolation-filters="sRGB" y="-.192" x="-.192">
   <feGaussianBlur stdDeviation="5.28"/>
  </filter>
  <filter id="c" color-interpolation-filters="sRGB">
   <feGaussianBlur stdDeviation="1.71"/>
  </filter>
  <linearGradient id="e" x1="45.448" gradientUnits="userSpaceOnUse" y1="92.54" gradientTransform="scale(1.0059 .99417)" x2="45.448" y2="7.0165">
   <stop offset="0"/>
   <stop stop-opacity=".58824" offset="1"/>
  </linearGradient>
 </defs>
 <g transform="translate(-195 -132.36)">
  <g display="none" transform="matrix(.39062 0 0 .39062 441.75 356.68)">
   <rect opacity=".9" rx="15.36" ry="15.36" height="85" filter="url(#c)" width="86" y="7" x="5" fill="url(#e)"/>
  </g>
  <g display="none" transform="matrix(.39062 0 0 .39062 441.75 356.68)">
   <rect height="66" stroke="#fff" stroke-linecap="round" stroke-width="1.28" fill="url(#a)" rx="30.72" ry="30.72" width="66" opacity=".5" clip-path="url(#d)" filter="url(#b)" y="15" x="15"/>
  </g>
  <g transform="translate(-280,-180)">
   <rect opacity=".5" transform="scale(-1,1)" rx="0" ry="0" height="32" width="32" y="312.36" x="-507"/>
   <path d="m505 319.36v1h-3v-1h3zm-5 0v1h-3v-1h3zm-5 0v1h-3v-1h3zm-5 0v1h-3v-1h3zm-5 0v1h-3v-1h3zm-5 0v1h-3v-1h3z" fill="#fff"/>
   <g transform="matrix(-.66667 0 0 1 677 -.012817)" fill="#fff">
    <path opacity="0.38" d="m281.25 320.31c8.5015-0.0547 7.9688 1.0625 18.75 22.062h-19-4-19c11.597-22.588 10.259-22.162 21-22.031 0.75519-0.009 1.607-0.0271 2.25-0.0313z"/>
    <path d="m282.75 320.31c6.9847 0.15457 7.1426 2.375 17.25 22.062h-2.2406c-9.8682-19.966-9.6453-21.127-16.759-21v0.0313c-0.76745 0-1.3359 0.007-2 0-0.66407 0.007-1.2326 0-2 0v-0.0313c-6.7827-0.0825-7.0238 1.0777-16.892 21.044l-2.11-0.03c10.781-21 10.249-22.117 18.75-22.062 0.64296 0.004 1.4935 0.0159 2.25 0.0313 0.75646-0.0153 1.607-0.0271 2.25-0.0313 0.53134-0.003 1.0344-0.0103 1.5 0z"/>
   </g>
  </g>
 </g>
</svg>
