<svg xmlns:rdf="http://www.w3.org/1999/02/22-rdf-syntax-ns#" xmlns="http://www.w3.org/2000/svg" height="32" width="32" version="1.1" xmlns:cc="http://creativecommons.org/ns#" xmlns:xlink="http://www.w3.org/1999/xlink" xmlns:dc="http://purl.org/dc/elements/1.1/">
 <defs>
  <clipPath id="d">
   <rect rx="6" ry="6" height="84" width="84" y="6" x="6" fill="#fff"/>
  </clipPath>
  <linearGradient id="a" x1="48" gradientUnits="userSpaceOnUse" y1="20.221" x2="48" y2="138.66">
   <stop stop-color="#fff" offset="0"/>
   <stop stop-color="#fff" stop-opacity="0" offset="1"/>
  </linearGradient>
  <filter id="b" height="1.384" width="1.384" color-interpolation-filters="sRGB" y="-.192" x="-.192">
   <feGaussianBlur stdDeviation="5.28"/>
  </filter>
  <filter id="c" color-interpolation-filters="sRGB">
   <feGaussianBlur stdDeviation="1.71"/>
  </filter>
  <linearGradient id="e" x1="45.448" gradientUnits="userSpaceOnUse" y1="92.54" gradientTransform="scale(1.0059 .99417)" x2="45.448" y2="7.0165">
   <stop offset="0"/>
   <stop stop-opacity=".58824" offset="1"/>
  </linearGradient>
 </defs>
 <g transform="translate(-195 -132.36)">
  <g display="none" transform="matrix(.39062 0 0 .39062 441.75 356.68)">
   <rect opacity=".9" rx="15.36" ry="15.36" height="85" filter="url(#c)" width="86" y="7" x="5" fill="url(#e)"/>
  </g>
  <g display="none" transform="matrix(.39062 0 0 .39062 441.75 356.68)">
   <rect height="66" stroke="#fff" stroke-linecap="round" stroke-width="1.28" fill="url(#a)" rx="30.72" ry="30.72" width="66" opacity=".5" clip-path="url(#d)" filter="url(#b)" y="15" x="15"/>
  </g>
  <g transform="translate(-280,-180)">
   <rect opacity=".5" transform="scale(-1,1)" rx="0" ry="0" height="32" width="32" y="312.36" x="-507"/>
   <path d="m505 319.36v1h-3v-1h3zm-5 0v1h-3v-1h3zm-5 0v1h-3v-1h3zm-5 0v1h-3v-1h3zm-5 0v1h-3v-1h3zm-5 0v1h-3v-1h3z" fill="#fff"/>
   <path opacity="0.36" d="m561.28 320.38c-2.3777 0.57584-4.2812 9.9969-4.2812 21.5 0 0.17077-0.00083 0.33018 0 0.5h9c0.00083-0.16982 0-0.32923 0-0.5 0-11.874-2.0147-21.5-4.5-21.5-0.0777 0-0.14205-0.0186-0.21875 0zm9.5 0c-2.11 0.57-4.78 9.98-4.78 21.48 0 0.17077-0.00074 0.33018 0 0.5h10c0.00074-0.16982 0-0.32923 0-0.5 0-11.874-2.7909-21.487-5-21.487-0.069 0-0.15057-0.0186-0.21875 0zm9.5 0c-2.3777 0.57584-4.2812 9.9969-4.2812 21.5 0 0.17077-0.00083 0.33018 0 0.5h9c0.00083-0.16982 0-0.32923 0-0.5 0-11.874-2.0147-21.5-4.5-21.5-0.0777 0-0.14205-0.0186-0.21875 0z" transform="translate(-80)" fill="#fff"/>
   <path stroke-linejoin="round" d="m486 341.86c0-11.867-2.0147-21.487-4.5-21.487-0.0777 0-0.14205-0.0186-0.21875 0-2.38 0.58-4.28 10-4.28 21.49m19-0.49996c0-11.867-2.7909-20.987-5-20.987-0.069 0-0.15057-0.0186-0.21875 0-2.11 0.58-4.78 9.5-4.78 20.99m19 0.49996c0-11.867-2.0147-21.487-4.5-21.487-0.0777 0-0.14205-0.0186-0.21875 0-2.38 0.58-4.28 10-4.28 21.49" stroke="#fff" stroke-linecap="square" fill="none"/>
  </g>
 </g>
</svg>
