<svg xmlns:rdf="http://www.w3.org/1999/02/22-rdf-syntax-ns#" xmlns="http://www.w3.org/2000/svg" height="32" width="32" version="1.1" xmlns:cc="http://creativecommons.org/ns#" xmlns:xlink="http://www.w3.org/1999/xlink" xmlns:dc="http://purl.org/dc/elements/1.1/">
 <defs>
  <clipPath id="d">
   <rect rx="6" ry="6" height="84" width="84" y="6" x="6" fill="#fff"/>
  </clipPath>
  <linearGradient id="a" x1="48" gradientUnits="userSpaceOnUse" y1="20.221" x2="48" y2="138.66">
   <stop stop-color="#fff" offset="0"/>
   <stop stop-color="#fff" stop-opacity="0" offset="1"/>
  </linearGradient>
  <filter id="b" height="1.384" width="1.384" color-interpolation-filters="sRGB" y="-.192" x="-.192">
   <feGaussianBlur stdDeviation="5.28"/>
  </filter>
  <filter id="c" color-interpolation-filters="sRGB">
   <feGaussianBlur stdDeviation="1.71"/>
  </filter>
  <linearGradient id="e" x1="45.448" gradientUnits="userSpaceOnUse" y1="92.54" gradientTransform="scale(1.0059 .99417)" x2="45.448" y2="7.0165">
   <stop offset="0"/>
   <stop stop-opacity=".58824" offset="1"/>
  </linearGradient>
 </defs>
 <g transform="translate(-195 -132.36)">
  <g display="none" transform="matrix(.39062 0 0 .39062 441.75 356.68)">
   <rect opacity=".9" rx="15.36" ry="15.36" height="85" filter="url(#c)" width="86" y="7" x="5" fill="url(#e)"/>
  </g>
  <g display="none" transform="matrix(.39062 0 0 .39062 441.75 356.68)">
   <rect height="66" stroke="#fff" stroke-linecap="round" stroke-width="1.28" fill="url(#a)" rx="30.72" ry="30.72" width="66" opacity=".5" clip-path="url(#d)" filter="url(#b)" y="15" x="15"/>
  </g>
  <g transform="translate(-210,-140)">
   <rect opacity=".5" rx="0" ry="0" height="32" width="32" y="272.36" x="405"/>
   <path d="m409.95 275.11c-1.4722 0-2.2034 13.25-2.2034 13.25h4.4216s-0.74597-13.25-2.2182-13.25zm2.2182 13.25s0.73119 13.25 2.2034 13.25 2.2034-13.25 2.2034-13.25h-4.4068zm4.4068 0h4.4216s-0.73118-13.25-2.2034-13.25-2.2182 13.25-2.2182 13.25zm4.4216 0s0.73118 13.25 2.2034 13.25 2.2182-13.25 2.2182-13.25h-4.4216zm4.4216 0h4.4068s-0.73117-13.25-2.2034-13.25-2.2034 13.25-2.2034 13.25zm4.4068 0s0.74598 13.25 2.2182 13.25 2.2034-13.25 2.2034-13.25h-4.4216z" stroke="#fff" stroke-width="1.5" fill="none"/>
  </g>
 </g>
</svg>
