<svg xmlns:rdf="http://www.w3.org/1999/02/22-rdf-syntax-ns#" xmlns="http://www.w3.org/2000/svg" height="32" width="32" version="1.1" xmlns:cc="http://creativecommons.org/ns#" xmlns:xlink="http://www.w3.org/1999/xlink" xmlns:dc="http://purl.org/dc/elements/1.1/">
 <defs>
  <clipPath id="e">
   <rect rx="6" ry="6" height="84" width="84" y="6" x="6" fill="#fff"/>
  </clipPath>
  <linearGradient id="b" x1="48" gradientUnits="userSpaceOnUse" y1="20.221" x2="48" y2="138.66">
   <stop stop-color="#fff" offset="0"/>
   <stop stop-color="#fff" stop-opacity="0" offset="1"/>
  </linearGradient>
  <filter id="c" height="1.384" width="1.384" color-interpolation-filters="sRGB" y="-.192" x="-.192">
   <feGaussianBlur stdDeviation="5.28"/>
  </filter>
  <filter id="d" color-interpolation-filters="sRGB">
   <feGaussianBlur stdDeviation="1.71"/>
  </filter>
  <linearGradient id="f" x1="45.448" gradientUnits="userSpaceOnUse" y1="92.54" gradientTransform="scale(1.0059 .99417)" x2="45.448" y2="7.0165">
   <stop offset="0"/>
   <stop stop-opacity=".58824" offset="1"/>
  </linearGradient>
  <linearGradient id="a" y2="297.36" gradientUnits="userSpaceOnUse" x2="345" y1="297.36" x1="315">
   <stop stop-color="#fff" offset="0"/>
   <stop stop-color="#fff" stop-opacity="0" offset="1"/>
  </linearGradient>
 </defs>
 <g transform="translate(-195 -132.36)">
  <g display="none" transform="matrix(.39062 0 0 .39062 441.75 356.68)">
   <rect opacity=".9" rx="15.36" ry="15.36" height="85" filter="url(#d)" width="86" y="7" x="5" fill="url(#f)"/>
  </g>
  <g display="none" transform="matrix(.39062 0 0 .39062 441.75 356.68)">
   <rect height="66" stroke="#fff" stroke-linecap="round" stroke-width="1.28" fill="url(#b)" rx="30.72" ry="30.72" width="66" opacity=".5" clip-path="url(#e)" filter="url(#c)" y="15" x="15"/>
  </g>
  <g transform="translate(-120,-140)">
   <g transform="translate(-3,-3)">
    <rect opacity=".5" rx="0" ry="0" height="32" width="32" y="275.36" x="318"/>
    <path d="m317 274.38v28h3v-28h-3zm5 9v19h3v-19h-3zm5 5v14h3v-14h-3zm5 3v11h3v-11h-3zm5 2v9h3v-9h-3zm5 1v8h3v-8h-3z" transform="translate(3,3)" fill="url(#a)"/>
   </g>
  </g>
 </g>
</svg>
