<svg xmlns:rdf="http://www.w3.org/1999/02/22-rdf-syntax-ns#" xmlns="http://www.w3.org/2000/svg" height="32" width="32" version="1.1" xmlns:cc="http://creativecommons.org/ns#" xmlns:xlink="http://www.w3.org/1999/xlink" xmlns:dc="http://purl.org/dc/elements/1.1/">
 <defs>
  <clipPath id="d">
   <rect rx="6" ry="6" height="84" width="84" y="6" x="6" fill="#fff"/>
  </clipPath>
  <linearGradient id="a" x1="48" gradientUnits="userSpaceOnUse" y1="20.221" x2="48" y2="138.66">
   <stop stop-color="#fff" offset="0"/>
   <stop stop-color="#fff" stop-opacity="0" offset="1"/>
  </linearGradient>
  <filter id="b" height="1.384" width="1.384" color-interpolation-filters="sRGB" y="-.192" x="-.192">
   <feGaussianBlur stdDeviation="5.28"/>
  </filter>
  <filter id="c" color-interpolation-filters="sRGB">
   <feGaussianBlur stdDeviation="1.71"/>
  </filter>
  <linearGradient id="e" x1="45.448" gradientUnits="userSpaceOnUse" y1="92.54" gradientTransform="scale(1.0059 .99417)" x2="45.448" y2="7.0165">
   <stop offset="0"/>
   <stop stop-opacity=".58824" offset="1"/>
  </linearGradient>
 </defs>
 <g transform="translate(-195 -132.36)">
  <g display="none" transform="matrix(.39062 0 0 .39062 441.75 356.68)">
   <rect opacity=".9" rx="15.36" ry="15.36" height="85" filter="url(#c)" width="86" y="7" x="5" fill="url(#e)"/>
  </g>
  <g display="none" transform="matrix(.39062 0 0 .39062 441.75 356.68)">
   <rect height="66" stroke="#fff" stroke-linecap="round" stroke-width="1.28" fill="url(#a)" rx="30.72" ry="30.72" width="66" opacity=".5" clip-path="url(#d)" filter="url(#b)" y="15" x="15"/>
  </g>
  <g transform="translate(-200,-220)">
   <rect opacity=".5" ry="0" rx="0" transform="scale(-1,1)" height="32" width="32" y="352.36" x="-427"/>
   <path d="m404.2 366.36-0.35 1.7c-0.34676 0.0627-0.67508 0.15892-1 0.275l-1.15-1.325-1.4 0.8 0.575 1.65c-0.26847 0.22652-0.52203 0.4828-0.75 0.75l-1.65-0.55-0.8 1.375 1.3 1.15c-0.12029 0.33585-0.21193 0.69085-0.275 1.05l-1.7 0.325v1.6l1.7 0.35c0.0628 0.34184 0.1602 0.67948 0.275 1l-1.3 1.15 0.8 1.375 1.65-0.55c0.22811 0.26764 0.48128 0.52312 0.75 0.75l-0.575 1.65 1.4 0.8 1.15-1.325c0.32492 0.11607 0.65324 0.21238 1 0.275l0.35 1.725h1.6l0.35-1.725c0.34676-0.0627 0.67508-0.15893 1-0.275l1.15 1.325 1.4-0.8-0.575-1.65c0.26872-0.22688 0.52189-0.48236 0.75-0.75l1.65 0.55 0.8-1.375-1.325-1.15c0.11616-0.32298 0.23668-0.65532 0.3-1l1.7-0.35v-1.6l-1.7-0.35c-0.0629-0.35049-0.15746-0.69681-0.275-1.025l1.3-1.15-0.8-1.375-1.65 0.55c-0.22797-0.2672-0.48153-0.52348-0.75-0.75l0.575-1.65-1.4-0.8-1.15 1.325c-0.32492-0.11608-0.65324-0.21239-1-0.275l-0.35-1.7h-1.6zm0.4 4c0.13447-0.0137 0.26193 0 0.4 0 2.2091 0 4 1.7909 4 4s-1.7909 4-4 4-4-1.7909-4-4c0-2.0711 1.583-3.7952 3.6-4z" fill="#fff"/>
   <path d="m528.81 355.53c-3.1383 0.15457-4.6143 0.73737-4.5625 1.8125h3.0938c1.0127 0 1.8438 0.83109 1.8438 1.8438v1.5c-0.00001 1.0127-0.73732 1.8368-1.75 1.8438l-3.125 0.0313c-0.0281 1.4689 2.846 2.0938 4.4062 2.0938 0.66141 0 1.2966-0.11162 1.875-0.34375 0.0421 0.0453 0.0775 0.0832 0.125 0.125l10 7.9688c0.7908 0.63263 1.8928 0.60337 2.5625-0.15625l0.59375-0.6875c0.6487-0.73588 0.63174-1.8542-0.0625-2.5312-0.0223-0.0218-0.0701-0.0417-0.0937-0.0625l-9.95-7.95c-0.05-0.044-0.10305-0.0872-0.15625-0.125 0.10173-0.39891 0.15625-0.81935 0.15625-1.25 0-2.7762-2.5726-4.0936-4.9375-4.0938zm12.656 13.625c0.0844-0.0173 0.19172 0 0.28125 0 0.71624 0 1.2812 0.56501 1.2812 1.2812 0 0.71624-0.56501 1.3125-1.2812 1.3125-0.71624 0-1.3125-0.59626-1.3125-1.3125 0-0.62671 0.44029-1.1603 1.0312-1.2812z" transform="translate(-120)" stroke="#fff" stroke-width=".5" fill="#fff"/>
  </g>
 </g>
</svg>
