<svg xmlns:rdf="http://www.w3.org/1999/02/22-rdf-syntax-ns#" xmlns="http://www.w3.org/2000/svg" height="32" width="32" version="1.1" xmlns:cc="http://creativecommons.org/ns#" xmlns:xlink="http://www.w3.org/1999/xlink" xmlns:dc="http://purl.org/dc/elements/1.1/">
 <defs>
  <clipPath id="d">
   <rect rx="6" ry="6" height="84" width="84" y="6" x="6" fill="#fff"/>
  </clipPath>
  <linearGradient id="a" x1="48" gradientUnits="userSpaceOnUse" y1="20.221" x2="48" y2="138.66">
   <stop stop-color="#fff" offset="0"/>
   <stop stop-color="#fff" stop-opacity="0" offset="1"/>
  </linearGradient>
  <filter id="b" height="1.384" width="1.384" color-interpolation-filters="sRGB" y="-.192" x="-.192">
   <feGaussianBlur stdDeviation="5.28"/>
  </filter>
  <filter id="c" color-interpolation-filters="sRGB">
   <feGaussianBlur stdDeviation="1.71"/>
  </filter>
  <linearGradient id="e" x1="45.448" gradientUnits="userSpaceOnUse" y1="92.54" gradientTransform="scale(1.0059 .99417)" x2="45.448" y2="7.0165">
   <stop offset="0"/>
   <stop stop-opacity=".58824" offset="1"/>
  </linearGradient>
 </defs>
 <g transform="translate(-195 -132.36)">
  <g display="none" transform="matrix(.39062 0 0 .39062 441.75 356.68)">
   <rect opacity=".9" rx="15.36" ry="15.36" height="85" filter="url(#c)" width="86" y="7" x="5" fill="url(#e)"/>
  </g>
  <g display="none" transform="matrix(.39062 0 0 .39062 441.75 356.68)">
   <rect height="66" stroke="#fff" stroke-linecap="round" stroke-width="1.28" fill="url(#a)" rx="30.72" ry="30.72" width="66" opacity=".5" clip-path="url(#d)" filter="url(#b)" y="15" x="15"/>
  </g>
  <g transform="translate(-435,-140)">
   <rect opacity=".5" rx="0" ry="0" height="32" width="32" y="272.36" x="630"/>
   <path fill="#fff" d="m632 277.38v1h3v-1h-3zm5 0v1h3v-1h-3zm5 0v1h3v-1h-3zm5 0v1h3v-1h-3zm5 0v1h3v-1h-3zm5 0v1h3v-1h-3z"/>
   <path fill="#fff" d="m632 298.38v1h3v-1h-3zm5 0v1h3v-1h-3zm5 0v1h3v-1h-3zm5 0v1h3v-1h-3zm5 0v1h3v-1h-3zm5 0v1h3v-1h-3z"/>
   <path d="m633.09 279.38c-0.72288 4.5734-1.0938 9-1.0938 9h9.3438s-0.40204-4.4264-1.125-9h-7.125zm8.25 9s0.37291 4.425 1.0938 9h7.125c0.72084-4.575 1.0938-9 1.0938-9h-9.3125zm9.3125 0h9.3438s-0.37087-4.4266-1.0938-9h-7.125c-0.72296 4.5736-1.125 9-1.125 9z" fill="#fff"/>
  </g>
 </g>
</svg>
