<svg xmlns:rdf="http://www.w3.org/1999/02/22-rdf-syntax-ns#" xmlns="http://www.w3.org/2000/svg" height="32" width="32" version="1.1" xmlns:cc="http://creativecommons.org/ns#" xmlns:xlink="http://www.w3.org/1999/xlink" xmlns:dc="http://purl.org/dc/elements/1.1/">
 <defs>
  <clipPath id="d">
   <rect rx="6" ry="6" height="84" width="84" y="6" x="6" fill="#fff"/>
  </clipPath>
  <linearGradient id="a" x1="48" gradientUnits="userSpaceOnUse" y1="20.221" x2="48" y2="138.66">
   <stop stop-color="#fff" offset="0"/>
   <stop stop-color="#fff" stop-opacity="0" offset="1"/>
  </linearGradient>
  <filter id="b" height="1.384" width="1.384" color-interpolation-filters="sRGB" y="-.192" x="-.192">
   <feGaussianBlur stdDeviation="5.28"/>
  </filter>
  <filter id="c" color-interpolation-filters="sRGB">
   <feGaussianBlur stdDeviation="1.71"/>
  </filter>
  <linearGradient id="e" x1="45.448" gradientUnits="userSpaceOnUse" y1="92.54" gradientTransform="scale(1.0059 .99417)" x2="45.448" y2="7.0165">
   <stop offset="0"/>
   <stop stop-opacity=".58824" offset="1"/>
  </linearGradient>
 </defs>
 <g transform="translate(-195 -132.36)">
  <g display="none" transform="matrix(.39062 0 0 .39062 441.75 356.68)">
   <rect opacity=".9" rx="15.36" ry="15.36" height="85" filter="url(#c)" width="86" y="7" x="5" fill="url(#e)"/>
  </g>
  <g display="none" transform="matrix(.39062 0 0 .39062 441.75 356.68)">
   <rect height="66" stroke="#fff" stroke-linecap="round" stroke-width="1.28" fill="url(#a)" rx="30.72" ry="30.72" width="66" opacity=".5" clip-path="url(#d)" filter="url(#b)" y="15" x="15"/>
  </g>
  <g transform="translate(-280,-220)">
   <rect opacity=".5" ry="0" rx="0" transform="scale(-1,1)" height="32" width="32" y="352.36" x="-507"/>
   <path d="m480 364.38v3h1v-3zm7 0v6.9872h1v-6.9872zm7 0v5h1v-5zm7 0v9h1v-9zm-23 4v2h5v-2zm14 2v2h5v-2zm-12 1v10h1v-10zm5 0.98718v2h5v-2zm9 1.0128v8h1v-8zm-7 1.9872v6.0128h1v-6.0128zm12-0.98718v2h5v-2zm2 3v4h1v-4z" fill="#fff"/>
   <path d="m480 359.44c-0.58755 0.20321-1 0.78085-1 1.4375 0 0.82843 0.67157 1.5 1.5 1.5s1.5-0.67157 1.5-1.5c0-0.65665-0.41245-1.2343-1-1.4375v1.9375h-1v-1.9375z" stroke="#fff" stroke-width=".5" fill="#fff"/>
   <path d="m480 354.44c-0.58755 0.20321-1 0.78085-1 1.4375 0 0.82843 0.67157 1.5 1.5 1.5s1.5-0.67157 1.5-1.5c0-0.65665-0.41245-1.2343-1-1.4375v1.9375h-1v-1.9375z" stroke="#fff" stroke-width=".5" fill="#fff"/>
   <path d="m487 359.42c-0.58755 0.20321-1 0.78085-1 1.4375 0 0.82843 0.67157 1.5 1.5 1.5s1.5-0.67157 1.5-1.5c0-0.65665-0.41245-1.2343-1-1.4375v1.9375h-1v-1.9375z" stroke="#fff" stroke-width=".5" fill="#fff"/>
   <path d="m487 354.42c-0.58755 0.20321-1 0.78085-1 1.4375 0 0.82843 0.67157 1.5 1.5 1.5s1.5-0.67157 1.5-1.5c0-0.65665-0.41245-1.2343-1-1.4375v1.9375h-1v-1.9375z" stroke="#fff" stroke-width=".5" fill="#fff"/>
   <path d="m494 359.42c-0.58755 0.20321-1 0.78085-1 1.4375 0 0.82843 0.67157 1.5 1.5 1.5s1.5-0.67157 1.5-1.5c0-0.65665-0.41245-1.2343-1-1.4375v1.9375h-1v-1.9375z" stroke="#fff" stroke-width=".5" fill="#fff"/>
   <path d="m494 354.42c-0.58755 0.20321-1 0.78085-1 1.4375 0 0.82843 0.67157 1.5 1.5 1.5s1.5-0.67157 1.5-1.5c0-0.65665-0.41245-1.2343-1-1.4375v1.9375h-1v-1.9375z" stroke="#fff" stroke-width=".5" fill="#fff"/>
   <path d="m501 359.42c-0.58755 0.20321-1 0.78085-1 1.4375 0 0.82843 0.67157 1.5 1.5 1.5s1.5-0.67157 1.5-1.5c0-0.65665-0.41245-1.2343-1-1.4375v1.9375h-1v-1.9375z" stroke="#fff" stroke-width=".5" fill="#fff"/>
   <path d="m501 354.42c-0.58755 0.20321-1 0.78085-1 1.4375 0 0.82843 0.67157 1.5 1.5 1.5s1.5-0.67157 1.5-1.5c0-0.65665-0.41245-1.2343-1-1.4375v1.9375h-1v-1.9375z" stroke="#fff" stroke-width=".5" fill="#fff"/>
  </g>
 </g>
</svg>
