<svg xmlns:rdf="http://www.w3.org/1999/02/22-rdf-syntax-ns#" xmlns="http://www.w3.org/2000/svg" height="32" width="32" version="1.1" xmlns:cc="http://creativecommons.org/ns#" xmlns:xlink="http://www.w3.org/1999/xlink" xmlns:dc="http://purl.org/dc/elements/1.1/">
 <defs>
  <clipPath id="d">
   <rect rx="6" ry="6" height="84" width="84" y="6" x="6" fill="#fff"/>
  </clipPath>
  <linearGradient id="a" x1="48" gradientUnits="userSpaceOnUse" y1="20.221" x2="48" y2="138.66">
   <stop stop-color="#fff" offset="0"/>
   <stop stop-color="#fff" stop-opacity="0" offset="1"/>
  </linearGradient>
  <filter id="b" height="1.384" width="1.384" color-interpolation-filters="sRGB" y="-.192" x="-.192">
   <feGaussianBlur stdDeviation="5.28"/>
  </filter>
  <filter id="c" color-interpolation-filters="sRGB">
   <feGaussianBlur stdDeviation="1.71"/>
  </filter>
  <linearGradient id="e" x1="45.448" gradientUnits="userSpaceOnUse" y1="92.54" gradientTransform="scale(1.0059 .99417)" x2="45.448" y2="7.0165">
   <stop offset="0"/>
   <stop stop-opacity=".58824" offset="1"/>
  </linearGradient>
 </defs>
 <g transform="translate(-195 -132.36)">
  <g display="none" transform="matrix(.39062 0 0 .39062 441.75 356.68)">
   <rect opacity=".9" rx="15.36" ry="15.36" height="85" filter="url(#c)" width="86" y="7" x="5" fill="url(#e)"/>
  </g>
  <g display="none" transform="matrix(.39062 0 0 .39062 441.75 356.68)">
   <rect height="66" stroke="#fff" stroke-linecap="round" stroke-width="1.28" fill="url(#a)" rx="30.72" ry="30.72" width="66" opacity=".5" clip-path="url(#d)" filter="url(#b)" y="15" x="15"/>
  </g>
  <g transform="translate(-360,-220)">
   <rect opacity=".5" transform="scale(-1,1)" rx="0" ry="0" height="32" width="32" y="352.36" x="-587"/>
   <path opacity=".5" d="m557 360.36v1h28v-1h-28zm0 4v1h28v-1h-28zm0 4v1h28v-1h-28zm0 4v1h28v-1h-28zm0 4v1h28v-1h-28z" fill="#fff"/>
   <path d="m570 356.36v16.5c0.80068 0.37315 1.4904 0.88317 2 1.5v-18z" fill="#fff"/>
   <path d="m567.44 372.33c0 1.3635-1.8468 2.4688-4.125 2.4688s-4.125-1.1053-4.125-2.4688c0-1.3634 1.8468-2.4688 4.125-2.4688s4.125 1.1053 4.125 2.4688z" transform="matrix(1.2121 0 0 1.2152 -115.8 -78.105)" fill="#fff"/>
   <path d="m572.72 356.36c0 5.2178 9.5088 12.523 8.1504 17.741-1.3584 5.2178-9.5088 4.1742-9.5088 4.1742s6.792 0 6.792-4.1742c0-6.2614-7.1504-10.436-7.1504-17.741" fill="#fff"/>
  </g>
 </g>
</svg>
