<svg xmlns:rdf="http://www.w3.org/1999/02/22-rdf-syntax-ns#" xmlns="http://www.w3.org/2000/svg" height="32" width="32" version="1.1" xmlns:cc="http://creativecommons.org/ns#" xmlns:xlink="http://www.w3.org/1999/xlink" xmlns:dc="http://purl.org/dc/elements/1.1/">
 <defs>
  <clipPath id="d">
   <rect rx="6" ry="6" height="84" width="84" y="6" x="6" fill="#fff"/>
  </clipPath>
  <linearGradient id="a" x1="48" gradientUnits="userSpaceOnUse" y1="20.221" x2="48" y2="138.66">
   <stop stop-color="#fff" offset="0"/>
   <stop stop-color="#fff" stop-opacity="0" offset="1"/>
  </linearGradient>
  <filter id="b" height="1.384" width="1.384" color-interpolation-filters="sRGB" y="-.192" x="-.192">
   <feGaussianBlur stdDeviation="5.28"/>
  </filter>
  <filter id="c" color-interpolation-filters="sRGB">
   <feGaussianBlur stdDeviation="1.71"/>
  </filter>
  <linearGradient id="e" x1="45.448" gradientUnits="userSpaceOnUse" y1="92.54" gradientTransform="scale(1.0059 .99417)" x2="45.448" y2="7.0165">
   <stop offset="0"/>
   <stop stop-opacity=".58824" offset="1"/>
  </linearGradient>
 </defs>
 <g transform="translate(-195 -132.36)">
  <g display="none" transform="matrix(.39062 0 0 .39062 441.75 356.68)">
   <rect opacity=".9" rx="15.36" ry="15.36" height="85" filter="url(#c)" width="86" y="7" x="5" fill="url(#e)"/>
  </g>
  <g display="none" transform="matrix(.39062 0 0 .39062 441.75 356.68)">
   <rect height="66" stroke="#fff" stroke-linecap="round" stroke-width="1.28" fill="url(#a)" rx="30.72" ry="30.72" width="66" opacity=".5" clip-path="url(#d)" filter="url(#b)" y="15" x="15"/>
  </g>
  <g transform="translate(-160,-260)">
   <rect opacity=".5" rx="0" ry="0" height="32" width="32" y="392.36" x="355"/>
   <path d="m372.13 400.91-2.7001 5.775c-3.1428 6.7219-0.39431 12.649 1.4174 13.496 1.8118 0.84709 8.268-1.1565 11.265-7.566l2.7001-5.775c-4.9804 0.003-9.3047-1.7185-12.682-5.9296zm2.0275 5.3291c0.8607 0.36577 1.3586 1.3732 1.1687 2.4438-0.0125 0.0707-0.0183 0.1567-0.036 0.22463-0.48623-0.49558-1.1152-0.8708-1.8437-1-0.72853-0.12923-1.448 0.008-2.075 0.30622 0.006-0.07 0.0236-0.15402 0.036-0.22463 0.21703-1.2236 1.268-2.0583 2.3556-1.8654 0.13593 0.0242 0.27149 0.0632 0.39448 0.11545zm5.2654 2.4618c0.11884 0.0611 0.23585 0.13986 0.34154 0.22869 0.84543 0.71086 0.87873 2.0526 0.079 3.0037-0.0462 0.0549-0.1 0.12172-0.14926 0.17169-0.1733-0.67229-0.52924-1.3124-1.0956-1.7886-0.56631-0.47619-1.2576-0.71822-1.9496-0.77356 0.0405-0.0575 0.1031-0.11684 0.14927-0.17169 0.69975-0.83221 1.7921-1.0961 2.6246-0.67018zm-9.0074 3.033c0.85349 0.84396 1.9767 1.6486 3.3172 2.2754 1.3405 0.62678 2.6782 0.9727 3.8731 1.0865-0.019 0.0684-0.0339 0.14647-0.0643 0.21142-0.52631 1.1257-2.5753 1.2797-4.5765 0.34404s-3.1968-2.6067-2.6705-3.7324c0.0304-0.065 0.0807-0.12649 0.12101-0.1849z" fill="#fff"/>
   <path d="m359 397.38v6.375c0 7.4203 5 11.625 7 11.625 0.31875 0 0.71748-0.12082 1.1562-0.34375-0.21249-1.5688-0.19423-3.3502 0.1875-5.25-0.43305-0.0458-0.88407-0.0625-1.3438-0.0625-1.4798 0-2.8381 0.25321-3.9688 0.65625-0.0117-0.07-0.0313-0.14706-0.0313-0.21875 0-1.2426 1.7909-2.25 4-2.25 0.63932 0 1.2453 0.0687 1.7812 0.21875 0.23915-0.77891 0.53034-1.571 0.90625-2.375l1.0938-2.3438c-0.2458-0.14495-0.49433-0.26688-0.7812-0.34375-0.7147-0.1915-1.4434-0.11799-2.0938 0.125 0.0124-0.0692 0.0127-0.14948 0.0313-0.21875 0.28141-1.0503 1.1904-1.752 2.125-1.7188 0.13352 0.005 0.27288 0.0268 0.40625 0.0625 0.4001 0.10721 0.72423 0.33991 0.96875 0.65625l1.375-2.9062c0.3865 0.48188 0.77993 0.91728 1.1875 1.3438v-3.0312c-4.5102 2.1124-9.1567 2.3842-14 0zm3.9375 3.875c0.93461-0.0332 1.8436 0.66849 2.125 1.7188 0.0186 0.0693 0.0186 0.14972 0.0313 0.21875-0.65036-0.24299-1.379-0.31651-2.0938-0.125-0.7147 0.1915-1.3083 0.62063-1.75 1.1562-0.024-0.0661-0.044-0.14949-0.0625-0.21875-0.32163-1.2003 0.27682-2.4016 1.3438-2.6875 0.13337-0.0357 0.27273-0.0577 0.40625-0.0625z" fill="#fff"/>
  </g>
 </g>
</svg>
