<svg xmlns:rdf="http://www.w3.org/1999/02/22-rdf-syntax-ns#" xmlns="http://www.w3.org/2000/svg" height="32" width="32" version="1.1" xmlns:cc="http://creativecommons.org/ns#" xmlns:xlink="http://www.w3.org/1999/xlink" xmlns:dc="http://purl.org/dc/elements/1.1/">
 <defs>
  <clipPath id="d">
   <rect rx="6" ry="6" height="84" width="84" y="6" x="6" fill="#fff"/>
  </clipPath>
  <linearGradient id="a" x1="48" gradientUnits="userSpaceOnUse" y1="20.221" x2="48" y2="138.66">
   <stop stop-color="#fff" offset="0"/>
   <stop stop-color="#fff" stop-opacity="0" offset="1"/>
  </linearGradient>
  <filter id="b" height="1.384" width="1.384" color-interpolation-filters="sRGB" y="-.192" x="-.192">
   <feGaussianBlur stdDeviation="5.28"/>
  </filter>
  <filter id="c" color-interpolation-filters="sRGB">
   <feGaussianBlur stdDeviation="1.71"/>
  </filter>
  <linearGradient id="e" x1="45.448" gradientUnits="userSpaceOnUse" y1="92.54" gradientTransform="scale(1.0059 .99417)" x2="45.448" y2="7.0165">
   <stop offset="0"/>
   <stop stop-opacity=".58824" offset="1"/>
  </linearGradient>
 </defs>
 <g transform="translate(-195 -132.36)">
  <g display="none" transform="matrix(.39062 0 0 .39062 441.75 356.68)">
   <rect opacity=".9" rx="15.36" ry="15.36" height="85" filter="url(#c)" width="86" y="7" x="5" fill="url(#e)"/>
  </g>
  <g display="none" transform="matrix(.39062 0 0 .39062 441.75 356.68)">
   <rect height="66" stroke="#fff" stroke-linecap="round" stroke-width="1.28" fill="url(#a)" rx="30.72" ry="30.72" width="66" opacity=".5" clip-path="url(#d)" filter="url(#b)" y="15" x="15"/>
  </g>
  <g transform="translate(-200,-220)">
   <rect opacity=".5" ry="0" rx="0" transform="scale(-1,1)" height="32" width="32" y="352.36" x="-427"/>
   <path d="m406 354.36-0.4375 2.125c-0.43344 0.0783-0.84386 0.19866-1.25 0.34375l-1.4375-1.6562-1.75 1 0.71875 2.0625c-0.33558 0.28315-0.65254 0.6035-0.9375 0.9375l-2.0625-0.6875-1 1.7188 1.625 1.4375c-0.15036 0.41982-0.26492 0.86356-0.34375 1.3125l-2.125 0.40625v2l2.125 0.4375c0.0785 0.4273 0.20026 0.84935 0.34375 1.25l-1.625 1.4375 1 1.7188 2.0625-0.6875c0.28514 0.33455 0.6016 0.65391 0.9375 0.9375l-0.71875 2.0625 1.75 1 1.4375-1.6562c0.40614 0.14509 0.81656 0.26548 1.25 0.34375l0.4375 2.1562h2l0.4375-2.1562c0.43344-0.0783 0.84386-0.19866 1.25-0.34375l1.4375 1.6562 1.75-1-0.71875-2.0625c0.3359-0.28359 0.65236-0.60295 0.9375-0.9375l2.0625 0.6875 1-1.7188-1.6562-1.4375c0.1452-0.40372 0.29586-0.81916 0.375-1.25l2.125-0.4375v-2l-2.125-0.4375c-0.0787-0.43811-0.19682-0.87101-0.34375-1.2812l1.625-1.4375-1-1.7188-2.0625 0.6875c-0.28496-0.334-0.60192-0.65435-0.9375-0.9375l0.71875-2.0625-1.75-1-1.4375 1.6562c-0.40614-0.14509-0.81656-0.26548-1.25-0.34375l-0.4375-2.125h-2zm0.5 5c0.16809-0.0171 0.32741 0 0.5 0 2.7614 0 5 2.2386 5 5s-2.2386 5-5 5-5-2.2386-5-5c0-2.5888 1.9787-4.744 4.5-5z" fill="#fff"/>
   <path d="m417 368.36-0.3125 2.1875c-0.41426 0.11395-0.79248 0.28957-1.1562 0.5l-1.7812-1.3438-1.4062 1.4062 1.3125 1.7812c-0.2043 0.36124-0.3589 0.74628-0.46875 1.1562l-2.1875 0.3125v2l2.1875 0.3125c0.11346 0.41355 0.2904 0.79294 0.5 1.1562l-1.3438 1.75 1.4062 1.4375 1.8125-1.3438c0.35338 0.20042 0.72471 0.35864 1.125 0.46875l0.3125 2.2188h2l0.3125-2.2188c0.40029-0.11011 0.77162-0.26833 1.125-0.46875l1.8125 1.3438 1.4062-1.4375-1.3438-1.75c0.2096-0.36331 0.38654-0.7427 0.5-1.1562l2.1875-0.3125v-2l-2.1875-0.3125c-0.10985-0.40997-0.26445-0.79501-0.46875-1.1562l1.3125-1.7812-1.4062-1.4062-1.7812 1.3438c-0.36377-0.21043-0.74199-0.38605-1.1562-0.5l-0.3125-2.1875h-2zm1 4c1.6568 0 3 1.3432 3 3s-1.3432 3-3 3-3-1.3432-3-3 1.3432-3 3-3z" fill="#fff"/>
  </g>
 </g>
</svg>
